<?xml version="1.0" encoding="UTF-8" standalone="no"?><svg xmlns="http://www.w3.org/2000/svg" xmlns:xlink="http://www.w3.org/1999/xlink" contentScriptType="application/ecmascript" contentStyleType="text/css" height="469px" preserveAspectRatio="none" style="width:834px;height:469px;" version="1.1" viewBox="0 0 834 469" width="834px" zoomAndPan="magnify"><defs><filter height="300%" id="fcbvwojghxh7l" width="300%" x="-1" y="-1"><feGaussianBlur result="blurOut" stdDeviation="2.0"/><feColorMatrix in="blurOut" result="blurOut2" type="matrix" values="0 0 0 0 0 0 0 0 0 0 0 0 0 0 0 0 0 0 .4 0"/><feOffset dx="4.0" dy="4.0" in="blurOut2" result="blurOut3"/><feBlend in="SourceGraphic" in2="blurOut3" mode="normal"/></filter></defs><g><!--MD5=[e73183ae97ca62d81f0bf19921e7c95e]
class Prenda--><rect codeLine="1" fill="#FEFECE" filter="url(#fcbvwojghxh7l)" height="99.2188" id="Prenda" style="stroke:#A80036;stroke-width:1.5;" width="142" x="536" y="115"/><ellipse cx="580.25" cy="131" fill="#ADD1B2" rx="11" ry="11" style="stroke:#A80036;stroke-width:1.0;"/><path d="M583.2188,136.6406 Q582.6406,136.9375 582,137.0781 Q581.3594,137.2344 580.6563,137.2344 Q578.1563,137.2344 576.8281,135.5938 Q575.5156,133.9375 575.5156,130.8125 Q575.5156,127.6875 576.8281,126.0313 Q578.1563,124.375 580.6563,124.375 Q581.3594,124.375 582,124.5313 Q582.6563,124.6875 583.2188,124.9844 L583.2188,127.7031 Q582.5938,127.125 582,126.8594 Q581.4063,126.5781 580.7813,126.5781 Q579.4375,126.5781 578.75,127.6563 Q578.0625,128.7188 578.0625,130.8125 Q578.0625,132.9063 578.75,133.9844 Q579.4375,135.0469 580.7813,135.0469 Q581.4063,135.0469 582,134.7813 Q582.5938,134.5 583.2188,133.9219 L583.2188,136.6406 Z " fill="#000000"/><text fill="#000000" font-family="sans-serif" font-size="12" lengthAdjust="spacingAndGlyphs" textLength="45" x="600.75" y="135.1543">Prenda</text><line style="stroke:#A80036;stroke-width:1.5;" x1="537" x2="677" y1="147" y2="147"/><text fill="#000000" font-family="sans-serif" font-size="11" lengthAdjust="spacingAndGlyphs" textLength="93" x="542" y="161.2104">TipoPrenda tipo;</text><text fill="#000000" font-family="sans-serif" font-size="11" lengthAdjust="spacingAndGlyphs" textLength="60" x="542" y="174.0151">Tela telita;</text><text fill="#000000" font-family="sans-serif" font-size="11" lengthAdjust="spacingAndGlyphs" textLength="73" x="542" y="186.8198">Color colorP;</text><text fill="#000000" font-family="sans-serif" font-size="11" lengthAdjust="spacingAndGlyphs" textLength="130" x="542" y="199.6245">Color colorSecundario;</text><line style="stroke:#A80036;stroke-width:1.5;" x1="537" x2="677" y1="206.2188" y2="206.2188"/><!--MD5=[dbe0d456c61bf46a544bb91845512ec5]
class TipoPrenda--><rect codeLine="8" fill="#FEFECE" filter="url(#fcbvwojghxh7l)" height="60.8047" id="TipoPrenda" style="stroke:#A80036;stroke-width:1.5;" width="347" x="49.5" y="274"/><ellipse cx="183.25" cy="290" fill="#EB937F" rx="11" ry="11" style="stroke:#A80036;stroke-width:1.0;"/><path d="M187.3594,296 L179.6406,296 L179.6406,283.6094 L187.3594,283.6094 L187.3594,285.7656 L182.0938,285.7656 L182.0938,288.4375 L186.8594,288.4375 L186.8594,290.5938 L182.0938,290.5938 L182.0938,293.8438 L187.3594,293.8438 L187.3594,296 Z " fill="#000000"/><text fill="#000000" font-family="sans-serif" font-size="12" lengthAdjust="spacingAndGlyphs" textLength="71" x="203.75" y="294.1543">TipoPrenda</text><line style="stroke:#A80036;stroke-width:1.5;" x1="50.5" x2="395.5" y1="306" y2="306"/><text fill="#000000" font-family="sans-serif" font-size="11" lengthAdjust="spacingAndGlyphs" textLength="335" x="55.5" y="320.2104">"ZAPATO", "CAMISA", "PANTALON", "CAMISAMANGACORTA";</text><line style="stroke:#A80036;stroke-width:1.5;" x1="50.5" x2="395.5" y1="326.8047" y2="326.8047"/><!--MD5=[7e1ce8ab2bf669717f28e918f4971b9a]
class Categoria--><rect codeLine="11" fill="#FEFECE" filter="url(#fcbvwojghxh7l)" height="60.8047" id="Categoria" style="stroke:#A80036;stroke-width:1.5;" width="376" x="7" y="395"/><ellipse cx="160.25" cy="411" fill="#EB937F" rx="11" ry="11" style="stroke:#A80036;stroke-width:1.0;"/><path d="M164.3594,417 L156.6406,417 L156.6406,404.6094 L164.3594,404.6094 L164.3594,406.7656 L159.0938,406.7656 L159.0938,409.4375 L163.8594,409.4375 L163.8594,411.5938 L159.0938,411.5938 L159.0938,414.8438 L164.3594,414.8438 L164.3594,417 Z " fill="#000000"/><text fill="#000000" font-family="sans-serif" font-size="12" lengthAdjust="spacingAndGlyphs" textLength="61" x="180.75" y="415.1543">Categoria</text><line style="stroke:#A80036;stroke-width:1.5;" x1="8" x2="382" y1="427" y2="427"/><text fill="#000000" font-family="sans-serif" font-size="11" lengthAdjust="spacingAndGlyphs" textLength="364" x="13" y="441.2104">"ACCESORIO", "PARTESUPERIOR", "PARTEINFERIOR", "CALZADO";</text><line style="stroke:#A80036;stroke-width:1.5;" x1="8" x2="382" y1="447.8047" y2="447.8047"/><!--MD5=[7e905a4fa9d835bc01546a938d85913f]
class Tela--><rect codeLine="15" fill="#FEFECE" filter="url(#fcbvwojghxh7l)" height="60.8047" id="Tela" style="stroke:#A80036;stroke-width:1.5;" width="120" x="445" y="274"/><ellipse cx="487.9" cy="290" fill="#EB937F" rx="11" ry="11" style="stroke:#A80036;stroke-width:1.0;"/><path d="M492.0094,296 L484.2906,296 L484.2906,283.6094 L492.0094,283.6094 L492.0094,285.7656 L486.7438,285.7656 L486.7438,288.4375 L491.5094,288.4375 L491.5094,290.5938 L486.7438,290.5938 L486.7438,293.8438 L492.0094,293.8438 L492.0094,296 Z " fill="#000000"/><text fill="#000000" font-family="sans-serif" font-size="12" lengthAdjust="spacingAndGlyphs" textLength="26" x="508.1" y="294.1543">Tela</text><line style="stroke:#A80036;stroke-width:1.5;" x1="446" x2="564" y1="306" y2="306"/><text fill="#000000" font-family="sans-serif" font-size="11" lengthAdjust="spacingAndGlyphs" textLength="108" x="451" y="320.2104">"ALGODON", ".....";</text><line style="stroke:#A80036;stroke-width:1.5;" x1="446" x2="564" y1="326.8047" y2="326.8047"/><!--MD5=[18eee71c88ab61f27581b8cbdd3ef5ee]
class Color--><rect codeLine="18" fill="#FEFECE" filter="url(#fcbvwojghxh7l)" height="60.8047" id="Color" style="stroke:#A80036;stroke-width:1.5;" width="220" x="600" y="274"/><ellipse cx="689.75" cy="290" fill="#EB937F" rx="11" ry="11" style="stroke:#A80036;stroke-width:1.0;"/><path d="M693.8594,296 L686.1406,296 L686.1406,283.6094 L693.8594,283.6094 L693.8594,285.7656 L688.5938,285.7656 L688.5938,288.4375 L693.3594,288.4375 L693.3594,290.5938 L688.5938,290.5938 L688.5938,293.8438 L693.8594,293.8438 L693.8594,296 Z " fill="#000000"/><text fill="#000000" font-family="sans-serif" font-size="12" lengthAdjust="spacingAndGlyphs" textLength="32" x="710.25" y="294.1543">Color</text><line style="stroke:#A80036;stroke-width:1.5;" x1="601" x2="819" y1="306" y2="306"/><text fill="#000000" font-family="sans-serif" font-size="11" lengthAdjust="spacingAndGlyphs" textLength="208" x="606" y="320.2104">"AMARILLO", "ROJO", "VIOLETA", "...";</text><line style="stroke:#A80036;stroke-width:1.5;" x1="601" x2="819" y1="326.8047" y2="326.8047"/><!--MD5=[0a7153afc828bc81f80e977c149d4bfd]
class Trama--><rect codeLine="21" fill="#FEFECE" filter="url(#fcbvwojghxh7l)" height="60.8047" id="Trama" style="stroke:#A80036;stroke-width:1.5;" width="203" x="418.5" y="395"/><ellipse cx="496.25" cy="411" fill="#EB937F" rx="11" ry="11" style="stroke:#A80036;stroke-width:1.0;"/><path d="M500.3594,417 L492.6406,417 L492.6406,404.6094 L500.3594,404.6094 L500.3594,406.7656 L495.0938,406.7656 L495.0938,409.4375 L499.8594,409.4375 L499.8594,411.5938 L495.0938,411.5938 L495.0938,414.8438 L500.3594,414.8438 L500.3594,417 Z " fill="#000000"/><text fill="#000000" font-family="sans-serif" font-size="12" lengthAdjust="spacingAndGlyphs" textLength="39" x="516.75" y="415.1543">Trama</text><line style="stroke:#A80036;stroke-width:1.5;" x1="419.5" x2="620.5" y1="427" y2="427"/><text fill="#000000" font-family="sans-serif" font-size="11" lengthAdjust="spacingAndGlyphs" textLength="191" x="424.5" y="441.2104">"RAYAS", "LUNARES", "LISA", "...";</text><line style="stroke:#A80036;stroke-width:1.5;" x1="419.5" x2="620.5" y1="447.8047" y2="447.8047"/><!--MD5=[55f48f56346c1bb205216335dfcec683]
class Uniforme--><rect codeLine="25" fill="#FEFECE" filter="url(#fcbvwojghxh7l)" height="48" id="Uniforme" style="stroke:#A80036;stroke-width:1.5;" width="88" x="563" y="7"/><ellipse cx="578" cy="23" fill="#ADD1B2" rx="11" ry="11" style="stroke:#A80036;stroke-width:1.0;"/><path d="M580.9688,28.6406 Q580.3906,28.9375 579.75,29.0781 Q579.1094,29.2344 578.4063,29.2344 Q575.9063,29.2344 574.5781,27.5938 Q573.2656,25.9375 573.2656,22.8125 Q573.2656,19.6875 574.5781,18.0313 Q575.9063,16.375 578.4063,16.375 Q579.1094,16.375 579.75,16.5313 Q580.4063,16.6875 580.9688,16.9844 L580.9688,19.7031 Q580.3438,19.125 579.75,18.8594 Q579.1563,18.5781 578.5313,18.5781 Q577.1875,18.5781 576.5,19.6563 Q575.8125,20.7188 575.8125,22.8125 Q575.8125,24.9063 576.5,25.9844 Q577.1875,27.0469 578.5313,27.0469 Q579.1563,27.0469 579.75,26.7813 Q580.3438,26.5 580.9688,25.9219 L580.9688,28.6406 Z " fill="#000000"/><text fill="#000000" font-family="sans-serif" font-size="12" lengthAdjust="spacingAndGlyphs" textLength="56" x="592" y="27.1543">Uniforme</text><line style="stroke:#A80036;stroke-width:1.5;" x1="564" x2="650" y1="39" y2="39"/><line style="stroke:#A80036;stroke-width:1.5;" x1="564" x2="650" y1="47" y2="47"/><!--MD5=[fc77daeaa815c62ea21e19110ef1cc43]
link Prenda to TipoPrenda--><path codeLine="28" d="M535.6725,190.5048 C472.4469,213.5558 379.8621,247.3107 311.8436,272.1091 " fill="none" id="Prenda-to-TipoPrenda" style="stroke:#A80036;stroke-width:1.0;"/><polygon fill="#A80036" points="306.9895,273.8788,316.8152,274.554,311.687,272.1661,314.0749,267.0379,306.9895,273.8788" style="stroke:#A80036;stroke-width:1.0;"/><!--MD5=[e7d431aeebff480bc36838e5189b8e95]
link Prenda to Color--><path codeLine="29" d="M631.3403,214.253 C643.8728,232.5113 659.1349,252.7804 673.0184,269.4766 " fill="none" id="Prenda-to-Color" style="stroke:#A80036;stroke-width:1.0;"/><polygon fill="#A80036" points="676.5159,273.641,673.7908,264.1767,673.3002,269.8122,667.6647,269.3217,676.5159,273.641" style="stroke:#A80036;stroke-width:1.0;"/><!--MD5=[e7d431aeebff480bc36838e5189b8e95]
link Prenda to Color--><path codeLine="30" d="M656.589,214.253 C670.8533,232.3565 685.2707,252.437 695.8368,269.0514 " fill="none" id="Prenda-to-Color-1" style="stroke:#A80036;stroke-width:1.0;"/><polygon fill="#A80036" points="698.7115,273.641,697.324,263.8904,696.0574,269.4036,690.5441,268.137,698.7115,273.641" style="stroke:#A80036;stroke-width:1.0;"/><!--MD5=[a02a1f0e4c064e0e4244812d2aea16ac]
link Prenda to Tela--><path codeLine="31" d="M570.7514,214.253 C557.4489,232.5113 542.6814,252.7804 530.517,269.4766 " fill="none" id="Prenda-to-Tela" style="stroke:#A80036;stroke-width:1.0;"/><polygon fill="#A80036" points="527.483,273.641,536.0157,268.7223,530.4273,269.5998,529.5498,264.0114,527.483,273.641" style="stroke:#A80036;stroke-width:1.0;"/><!--MD5=[cebfd5c4912165c0a478c7ce726a6c66]
link Tela to Trama--><path codeLine="32" d="M508.7851,335.0334 C510.8458,351.6565 513.4071,372.3175 515.5615,389.6964 " fill="none" id="Tela-to-Trama" style="stroke:#A80036;stroke-width:1.0;"/><polygon fill="#A80036" points="516.2161,394.9764,519.0782,385.5526,515.6008,390.0144,511.139,386.537,516.2161,394.9764" style="stroke:#A80036;stroke-width:1.0;"/><!--MD5=[e459f39d9ed26b05f5b396c615e682f7]
link TipoPrenda to Categoria--><path codeLine="33" d="M215.9344,335.0334 C212.0878,351.6565 207.3067,372.3175 203.2851,389.6964 " fill="none" id="TipoPrenda-to-Categoria" style="stroke:#A80036;stroke-width:1.0;"/><polygon fill="#A80036" points="202.0633,394.9764,207.9894,387.1099,203.1906,390.1051,200.1954,385.3063,202.0633,394.9764" style="stroke:#A80036;stroke-width:1.0;"/><!--MD5=[50be1fea9a30622574d91fb33b537194]
link Uniforme to Prenda--><path codeLine="34" d="M607,55.1758 C607,70.3545 607,90.5739 607,109.4937 " fill="none" id="Uniforme-to-Prenda" style="stroke:#A80036;stroke-width:1.0;"/><polygon fill="#A80036" points="607,114.7903,611,105.7903,607,109.7903,603,105.7903,607,114.7903" style="stroke:#A80036;stroke-width:1.0;"/><text fill="#000000" font-family="sans-serif" font-size="13" lengthAdjust="spacingAndGlyphs" textLength="7" x="599.5078" y="103.806">*</text><!--MD5=[cfd5d98c312125cb7510ac48fb0c1c1c]
@startuml
class Prenda{
  TipoPrenda tipo;
  Tela telita;
  Color colorP;
  Color colorSecundario;
}
  
enum TipoPrenda{ 
  "ZAPATO", "CAMISA", "PANTALON", "CAMISAMANGACORTA";
  }
enum Categoria{
  "ACCESORIO", "PARTESUPERIOR", "PARTEINFERIOR", "CALZADO";
  }

enum Tela{
  "ALGODON", ".....";
  }
enum Color{
  "AMARILLO", "ROJO", "VIOLETA", "...";
}
enum Trama{
  "RAYAS", "LUNARES", "LISA", "..."; 
}

class Uniforme{
  }
  
Prenda - -> TipoPrenda
Prenda - -> Color
Prenda - -> Color
Prenda - -> Tela
Tela - -> Trama
TipoPrenda - -> Categoria
Uniforme - -> "*" Prenda
@enduml

PlantUML version 1.2020.22(Sun Dec 06 09:36:27 UTC 2020)
(GPL source distribution)
Java Runtime: OpenJDK Runtime Environment
JVM: OpenJDK 64-Bit Server VM
Default Encoding: UTF-8
Language: en
Country: US
--></g></svg>